HIERARCHY
ROOT hip
{
	OFFSET 0.000000 0.000000 0.000000 
	CHANNELS 6 Xposition Yposition Zposition Xrotation Zrotation Yrotation
	JOINT abdomen
	{
		OFFSET 0.000000 3.402643 0.000000 
		CHANNELS 3 Xrotation Zrotation Yrotation
		JOINT chest
		{
			OFFSET 0.000000 8.438565 -0.680529 
			CHANNELS 3 Xrotation Zrotation Yrotation
			JOINT neck
			{
				OFFSET 0.000000 10.207942 -0.272212 
				CHANNELS 3 Xrotation Zrotation Yrotation
				JOINT head
				{
					OFFSET 0.000000 3.130431 0.000000 
					CHANNELS 3 Xrotation Zrotation Yrotation
					End Site
					{
						OFFSET 0.000000 3.130435 0.000000 
					}
				}
			}
			JOINT lCollar
			{
				OFFSET 3.470700 6.669187 -0.816635 
				CHANNELS 3 Yrotation Zrotation Xrotation
				JOINT lShldr
				{
					OFFSET 3.198488 0.000000 0.000000 
					CHANNELS 3 Zrotation Yrotation Xrotation
					JOINT lForeArm
					{
						OFFSET 10.139888 0.000000 0.000000 
						CHANNELS 3 Yrotation Zrotation Xrotation
						JOINT lHand
						{
							OFFSET 8.370511 0.000000 0.000000 
							CHANNELS 3 Zrotation Yrotation Xrotation
							End Site
							{
								OFFSET 4.083176 0.000000 0.000000 
							}
						}
					}
				}
			}
			JOINT rCollar
			{
				OFFSET -3.470700 6.669187 -0.816635 
				CHANNELS 3 Yrotation Zrotation Xrotation
				JOINT rShldr
				{
					OFFSET -3.198488 0.000000 0.000000 
					CHANNELS 3 Zrotation Yrotation Xrotation
					JOINT rForeArm
					{
						OFFSET -10.139888 0.000000 0.000000 
						CHANNELS 3 Yrotation Zrotation Xrotation
						JOINT rHand
						{
							OFFSET -8.370511 0.000000 0.000000 
							CHANNELS 3 Zrotation Yrotation Xrotation
							End Site
							{
								OFFSET -4.083176 0.000000 0.000000 
							}
						}
					}
				}
			}
		}
	}
	JOINT lThigh
	{
		OFFSET 5.308129 -1.633274 1.361059 
		CHANNELS 3 Xrotation Zrotation Yrotation
		JOINT lShin
		{
			OFFSET -2.041588 -20.007561 0.000000 
			CHANNELS 3 Xrotation Zrotation Yrotation
			JOINT lFoot
			{
				OFFSET 0.000000 -19.190928 -1.224953 
				CHANNELS 3 Xrotation Yrotation Zrotation
				End Site
				{
					OFFSET 0.000000 -2.449906 4.627600 
				}
			}
		}
	}
	JOINT rThigh
	{
		OFFSET -5.308129 -1.633274 1.361059 
		CHANNELS 3 Xrotation Zrotation Yrotation
		JOINT rShin
		{
			OFFSET 2.041588 -20.007561 0.000000 
			CHANNELS 3 Xrotation Zrotation Yrotation
			JOINT rFoot
			{
				OFFSET 0.000000 -19.190928 -1.224953 
				CHANNELS 3 Xrotation Yrotation Zrotation
				End Site
				{
					OFFSET 0.000000 -2.449906 4.627600 
				}
			}
		}
	}
}
MOTION
Frames: 18
Frame Time: 0.011111
0.498373 54.660862 30.463156 5.306736 -7.068141 -3.646700 33.300980 7.087005 8.059517 -25.786118 -4.428574 1.365600 -15.656278 -0.215766 -0.148725 -4.591323 0.828378 -0.397925 8.861669 -1.932660 3.351237 -71.249077 -4.626133 43.829807 -90.800583 6.381645 35.652241 8.524705 12.647240 -13.509169 -6.806992 -0.756156 2.905732 67.196930 32.432949 50.957973 91.749603 -6.994266 36.208778 -8.534408 -12.637552 53.216656 -46.040077 14.032086 -4.887444 53.846901 -3.402331 -7.581381 1.527998 -5.255122 -3.087994 36.761410 0.021316 14.542677 -0.106682 5.940860 0.683861 34.332031 -13.702237 7.356918 
0.485578 54.852787 32.123672 5.348325 -7.158084 -3.395294 33.401455 7.103746 8.008722 -25.727789 -4.480572 1.346764 -15.822801 -0.270814 -0.233129 -4.962399 0.621513 -0.574425 8.861669 -1.932660 3.351237 -71.692108 -4.535142 43.010071 -91.000618 6.517953 35.767017 8.524705 12.647240 -13.714247 -6.806992 -0.756156 2.905732 66.808395 32.255741 51.747066 91.552376 -6.872318 36.101601 -8.534408 -12.637552 53.070171 -44.809658 13.865844 -5.368997 48.477074 -3.931417 -7.044063 2.163842 -4.379895 -2.998287 35.061012 0.793029 15.048688 5.817485 5.991971 1.528012 32.213467 -11.893784 6.092361 
0.462173 54.991653 33.760155 5.397389 -7.146378 -3.390743 33.513626 6.897809 7.924043 -25.735914 -4.264643 1.344417 -15.978909 -0.374496 -0.130844 -5.127883 0.444112 -0.405016 8.861669 -1.932660 3.351237 -72.340034 -4.675374 42.157867 -91.123024 6.600186 35.839176 8.524705 12.647240 -13.831433 -6.806992 -0.756156 2.905732 66.248543 32.110420 52.630730 91.254959 -6.687647 35.923958 -8.534408 -12.637552 52.835800 -43.391102 13.835961 -5.689734 43.267826 -4.390409 -6.491202 2.537414 -3.379698 -2.967865 33.704960 1.310340 15.741220 11.006810 5.965044 2.267976 30.108444 -10.431791 5.190601 
0.420043 55.068733 35.419422 5.486021 -7.222644 -3.576204 33.342739 6.543978 8.126089 -25.725241 -4.167235 1.431605 -15.754068 -0.319292 -0.118643 -5.459661 0.347674 -0.361385 8.861669 -1.932660 3.351237 -72.481377 -4.619355 41.731060 -91.364929 6.753398 35.985542 8.524705 12.647240 -13.890027 -6.806992 -0.756156 2.905732 65.949394 31.485239 53.222717 90.901810 -6.455543 35.715881 -8.534408 -12.637552 52.689312 -41.987137 13.982902 -5.895438 38.623909 -4.761641 -5.947070 2.779789 -2.535125 -2.930200 32.638542 1.720802 16.640732 15.545681 5.888003 2.893284 28.612291 -9.396750 4.644327 
0.373233 55.096516 37.081806 5.546841 -7.467760 -3.852795 32.988590 6.301130 8.605232 -25.745161 -4.257149 1.599696 -14.621346 0.004780 -0.286235 -6.591969 0.083488 -0.544091 8.861669 -1.932660 3.351237 -72.140770 -4.492342 41.662571 -91.615318 6.910916 36.133072 8.524705 12.647240 -14.056043 -6.806992 -0.756156 2.905732 65.892395 30.489729 53.565857 90.555290 -6.214610 35.499245 -8.534408 -12.637552 52.728374 -40.699261 14.364006 -5.916044 34.497585 -5.054426 -5.450967 2.662784 -1.961694 -2.969650 31.574537 2.208951 17.696014 20.102045 5.769299 3.512068 27.003084 -9.012722 4.465038 
0.327047 55.128338 38.727032 5.463623 -8.023810 -4.247956 32.985725 6.392581 9.210447 -25.716608 -4.408767 1.750846 -13.801314 0.318586 -0.377137 -7.538586 -0.153824 -0.603461 8.861669 -1.932660 3.351237 -72.107101 -4.791303 41.356243 -91.743195 6.986880 36.206955 8.524705 12.647240 -14.153699 -6.806992 -0.756156 2.905732 65.931465 29.516714 53.980522 90.262299 -6.006181 35.315392 -8.534408 -12.637552 52.474468 -39.138214 15.175070 -5.825527 31.212639 -5.254465 -5.030381 1.609288 -1.498781 -3.037561 30.661009 3.018551 17.764210 24.623865 5.593381 4.130500 25.657116 -8.789373 4.383335 
0.277429 55.097755 40.333248 5.367532 -8.228889 -4.321387 33.133591 6.225789 9.410394 -25.560259 -4.474565 1.813794 -13.235363 0.462574 -0.460475 -8.915195 -0.186097 -0.708055 8.861669 -1.932660 3.351237 -72.005943 -5.855335 41.240940 -91.706429 6.964677 36.175751 8.524705 12.647240 -14.075574 -6.806992 -0.756156 2.905732 65.997620 28.923946 54.199810 89.810776 -5.660247 35.022816 -8.534408 -12.637552 52.210793 -37.871548 15.407320 -5.831116 28.632179 -5.411256 -4.682967 0.234250 -0.676168 -3.082933 29.565506 3.731702 17.380053 29.177160 5.354061 4.757044 24.622608 -8.797047 4.387174 
0.224065 54.998833 41.924171 5.330104 -8.289557 -4.115181 33.173920 6.074838 9.196795 -25.334438 -4.386370 1.767254 -12.629941 0.443397 -0.473783 -10.292328 -0.048350 -0.755515 8.861669 -1.932660 3.351237 -71.978638 -6.959848 41.114426 -91.715103 6.970858 36.186020 8.524705 12.647240 -14.104870 -6.806992 -0.756156 2.905732 65.980087 28.739033 54.444271 89.217438 -5.169927 34.605145 -8.534408 -12.637552 52.064308 -36.846626 15.309475 -5.589720 26.897394 -5.493652 -4.469191 -0.369017 0.361988 -3.071799 28.297548 4.443915 16.654106 33.724632 5.094394 5.316542 23.855165 -9.346415 4.632598 
0.193483 54.888363 43.529449 5.321089 -8.169730 -3.612320 33.124691 5.959770 8.626382 -25.118738 -4.306789 1.624942 -12.795749 0.422299 -0.429546 -10.331934 0.147734 -0.684813 8.861669 -1.932660 3.351237 -72.088974 -8.136782 40.934368 -91.715103 6.970858 36.186020 8.524705 12.647240 -14.261120 -6.806992 -0.756156 2.905732 65.969147 28.406660 54.460999 88.765610 -4.759018 34.262859 -8.534408 -12.637552 51.859234 -35.566528 14.860009 -4.823175 25.592165 -5.542736 -4.294395 -0.580437 1.094638 -3.073902 26.794579 5.019788 15.259713 38.368603 4.762014 5.904775 23.790529 -10.357324 5.072598 
0.175695 54.747932 45.168430 5.064459 -7.969069 -3.027822 33.172882 5.838972 8.012084 -25.079952 -4.321603 1.476166 -12.902597 0.378973 -0.309758 -9.854546 0.597748 -0.498285 8.861669 -1.932660 3.351237 -72.037415 -9.283494 40.938774 -91.642036 6.927444 36.144299 8.524705 12.647240 -14.261120 -6.806992 -0.756156 2.905732 66.185684 27.450157 54.212135 88.330879 -4.329547 33.905716 -8.534408 -12.637552 51.742046 -33.940147 14.285263 -3.578441 24.836296 -5.575861 -4.194864 -0.580255 1.865438 -3.059855 25.375956 5.410392 13.713354 42.984032 4.399626 6.421785 23.888977 -12.260924 5.928309 
0.159467 54.570984 46.808662 4.539451 -7.593222 -2.472285 33.459766 5.492915 7.339786 -25.285875 -4.329573 1.355538 -12.677586 0.439467 -0.222839 -9.259562 0.962023 -0.343771 8.861669 -1.932660 3.351237 -71.748634 -10.359430 41.061268 -91.544853 6.865138 36.091293 8.524705 12.647240 -13.811904 -6.806992 -0.756156 2.905732 66.385986 26.200811 53.854618 87.861565 -3.816013 33.476334 -8.534408 -12.637552 52.210793 -31.922039 13.544019 -2.392066 24.540600 -5.602044 -4.163175 -0.688635 2.327257 -3.048508 23.990995 5.527571 12.021299 47.681786 3.991493 6.943456 23.632555 -14.425491 6.884875 
0.132629 54.328823 48.421112 4.074458 -7.292483 -2.095196 33.770149 5.096190 6.891854 -25.570208 -4.359936 1.302173 -12.492141 0.549075 -0.226628 -8.517801 1.173237 -0.321362 8.861669 -1.932660 3.351237 -71.300842 -11.610797 41.475208 -91.410172 6.780825 36.007347 8.524705 12.647240 -13.147840 -6.806992 -0.756156 2.905732 66.650787 24.868250 53.284195 87.458488 -3.313773 33.031971 -8.534408 -12.637552 52.327984 -29.977953 12.957791 -1.173139 24.564392 -5.585804 -4.152890 -0.507345 2.192006 -3.060627 22.437374 5.566259 10.276535 52.434448 3.544830 7.454789 23.289076 -16.328955 7.723151 
0.091436 54.058262 50.031078 3.744449 -6.610754 -1.880684 33.906239 4.197389 6.198834 -25.744375 -4.060004 1.235164 -12.452707 0.370108 -0.176935 -7.864979 1.666846 -0.302433 8.861669 -1.932660 3.351237 -71.039360 -13.007550 41.979095 -91.319725 6.725170 35.955162 8.524705 12.647240 -12.444715 -6.806992 -0.756156 2.905732 66.752731 23.743687 52.663197 87.131714 -2.857593 32.619930 -8.534408 -12.637552 52.161968 -28.029438 12.076860 0.400347 24.854372 -5.589827 -4.170287 0.452764 1.649707 -3.053193 20.609545 5.029006 8.270291 57.284241 3.017446 7.930459 22.409771 -18.024109 8.362312 
0.065222 53.762730 51.650085 3.287583 -5.807161 -1.595170 34.151310 3.273690 5.271040 -25.683559 -3.722804 1.086947 -12.393778 0.273687 -0.115683 -7.513837 1.909669 -0.219704 8.861669 -1.932660 3.351237 -70.877586 -14.648434 42.372955 -91.283089 6.703228 35.933868 8.524705 12.647240 -11.692762 -6.806992 -0.756156 2.905732 66.859749 23.010660 52.076542 86.862724 -2.433187 32.179668 -8.534408 -12.637552 52.249859 -25.988131 11.031558 2.051041 25.610294 -5.556882 -4.269956 1.515763 0.362141 -3.037820 18.895727 4.238629 6.180831 62.007687 2.484098 8.304700 20.732771 -19.740366 8.757657 
0.029646 53.440369 53.254116 2.783403 -4.978338 -1.376701 34.521851 2.285412 4.303411 -25.759125 -3.246066 0.943478 -12.344871 0.247197 -0.099924 -6.995683 1.833858 -0.197124 8.861669 -1.932660 3.351237 -70.903267 -16.415524 42.814278 -91.204933 6.650614 35.891838 8.524705 12.647240 -11.048230 -6.806992 -0.756156 2.905732 66.910934 22.213221 51.453823 86.658051 -2.064864 31.748714 -8.534408 -12.637552 52.054546 -24.138554 9.989367 3.620944 26.987822 -5.493403 -4.457633 1.782571 -4.340673 -3.023082 17.112759 3.261287 4.150005 66.594429 1.940290 8.668625 18.742056 -21.305178 8.938901 
-0.023093 53.089283 54.850346 2.321492 -4.526059 -0.945850 34.876141 1.756716 3.465167 -26.031387 -2.926589 0.786507 -12.012941 0.293116 -0.120084 -6.780704 1.804008 -0.209844 8.861669 -1.932660 3.351237 -70.739357 -18.096046 43.455448 -91.229866 6.668838 35.901882 8.524705 12.647240 -10.403699 -6.806992 -0.756156 2.905732 67.032402 21.057800 50.793499 86.520386 -1.788806 31.362925 -8.534408 -12.637552 51.732285 -22.897409 9.275970 4.627120 28.772633 -5.405804 -4.685074 0.044316 -8.402385 -3.427618 15.493345 2.607061 2.043607 71.057663 1.372045 8.972535 16.384083 -22.742834 8.843053 
-0.042129 52.709187 56.482151 2.086045 -4.344063 0.144568 34.883636 1.969508 2.371562 -25.884588 -2.863049 0.477251 -12.119744 0.386507 -0.010255 -6.467441 1.979090 0.017053 8.861669 -1.932660 3.351237 -70.503304 -19.991217 44.074127 -91.347061 6.742081 35.974865 8.524705 12.647240 -9.866590 -6.806992 -0.756156 2.905732 67.263664 20.119404 50.027855 86.439041 -1.614544 31.069744 -8.534408 -12.637552 51.800640 -21.745731 8.661259 4.485662 30.921331 -5.289141 -4.974435 -3.377265 -10.005713 -4.164926 13.923691 2.206477 -0.533401 75.274353 0.853339 9.189756 13.620988 -24.208834 8.505636 
-0.092060 52.306931 57.905495 1.801664 -4.194969 -0.513247 35.973461 1.332830 2.106112 -26.244289 -2.430871 0.465770 -13.055748 0.184206 0.236372 -5.859686 2.300322 0.433821 8.861669 -1.932660 3.351237 -70.674812 -22.421152 44.409519 -91.443985 6.805006 36.027668 8.524705 12.647240 -9.671278 -6.806992 -0.756156 2.905732 67.262787 19.874542 49.436756 86.374840 -1.475865 30.784260 -8.534408 -12.637552 51.663921 -20.697866 8.561760 5.263257 33.254597 -5.143308 -5.259598 -6.848001 -10.089195 -4.766542 11.439007 1.337137 -1.467674 79.756783 0.217863 9.411750 12.128472 -25.029615 8.262556 
